<svg width="131" height="85" viewBox="0 0 131 85" fill="none" xmlns="http://www.w3.org/2000/svg">
<path d="M54.7656 35.2524C56.4323 35.2524 57.6989 35.4524 58.5656 35.8524C59.4323 36.2191 60.1989 36.6357 60.8656 37.1024C61.2656 37.3357 61.5823 37.5191 61.8156 37.6524C62.0823 37.7524 62.3323 37.8024 62.5656 37.8024C62.8989 37.8024 63.1323 37.6191 63.2656 37.2524C63.4323 36.8857 63.5656 36.3357 63.6656 35.6024H64.8156C64.7823 36.1691 64.7323 36.8524 64.6656 37.6524C64.6323 38.4191 64.5989 39.4524 64.5656 40.7524C64.5656 42.0191 64.5656 43.7024 64.5656 45.8024H63.4156C63.3156 44.2024 62.9656 42.6691 62.3656 41.2024C61.7656 39.7357 60.8823 38.5357 59.7156 37.6024C58.5823 36.6691 57.0823 36.2024 55.2156 36.2024C53.4489 36.2024 51.9823 36.7357 50.8156 37.8024C49.6823 38.8691 49.1156 40.2691 49.1156 42.0024C49.1156 43.5024 49.4989 44.7691 50.2656 45.8024C51.0323 46.8024 52.0489 47.7191 53.3156 48.5524C54.6156 49.3524 56.0156 50.2191 57.5156 51.1524C59.2489 52.2191 60.7823 53.2857 62.1156 54.3524C63.4823 55.3857 64.5489 56.5357 65.3156 57.8024C66.1156 59.0691 66.5156 60.6024 66.5156 62.4024C66.5156 64.5357 66.0323 66.3024 65.0656 67.7024C64.0989 69.1024 62.8156 70.1524 61.2156 70.8524C59.6156 71.5524 57.8489 71.9024 55.9156 71.9024C54.1489 71.9024 52.7489 71.7024 51.7156 71.3024C50.6823 70.9024 49.7989 70.4857 49.0656 70.0524C48.3323 69.5857 47.7656 69.3524 47.3656 69.3524C47.0323 69.3524 46.7823 69.5357 46.6156 69.9024C46.4823 70.2691 46.3656 70.8191 46.2656 71.5524H45.1156C45.1823 70.8524 45.2156 70.0357 45.2156 69.1024C45.2489 68.1357 45.2656 66.8857 45.2656 65.3524C45.2989 63.8191 45.3156 61.8857 45.3156 59.5524H46.4656C46.5989 61.5524 46.9656 63.4191 47.5656 65.1524C48.1989 66.8857 49.1489 68.2857 50.4156 69.3524C51.7156 70.3857 53.4323 70.9024 55.5656 70.9024C56.6656 70.9024 57.6989 70.6857 58.6656 70.2524C59.6656 69.7857 60.4823 69.0691 61.1156 68.1024C61.7489 67.1024 62.0656 65.8191 62.0656 64.2524C62.0656 62.8857 61.7323 61.7024 61.0656 60.7024C60.4323 59.6691 59.5323 58.7191 58.3656 57.8524C57.1989 56.9524 55.8323 56.0357 54.2656 55.1024C52.6989 54.1357 51.2323 53.1524 49.8656 52.1524C48.4989 51.1524 47.3989 50.0024 46.5656 48.7024C45.7656 47.3691 45.3656 45.7691 45.3656 43.9024C45.3656 41.9357 45.7989 40.3191 46.6656 39.0524C47.5656 37.7524 48.7323 36.8024 50.1656 36.2024C51.5989 35.5691 53.1323 35.2524 54.7656 35.2524ZM93.1175 44.9024V65.8024C93.1175 67.3024 93.3842 68.4191 93.9175 69.1524C94.4842 69.8524 95.4842 70.2024 96.9175 70.2024V71.2524C95.8842 71.1524 94.8509 71.1024 93.8175 71.1024C92.8509 71.1024 91.9175 71.1524 91.0175 71.2524C90.1509 71.3524 89.3509 71.5357 88.6175 71.8024V65.9024C87.7842 68.0691 86.6009 69.6191 85.0675 70.5524C83.5675 71.4524 82.0175 71.9024 80.4175 71.9024C79.2509 71.9024 78.2342 71.7357 77.3675 71.4024C76.5009 71.0691 75.7842 70.6024 75.2175 70.0024C74.5842 69.3357 74.1509 68.4691 73.9175 67.4024C73.6842 66.3357 73.5675 65.0191 73.5675 63.4524V50.9024C73.5675 49.4024 73.3009 48.3024 72.7675 47.6024C72.2342 46.8691 71.2342 46.5024 69.7675 46.5024V45.4524C70.8342 45.5524 71.8675 45.6024 72.8675 45.6024C73.8342 45.6024 74.7509 45.5524 75.6175 45.4524C76.5175 45.3191 77.3342 45.1357 78.0675 44.9024V64.5524C78.0675 65.5857 78.1342 66.5357 78.2675 67.4024C78.4009 68.2691 78.7342 68.9691 79.2675 69.5024C79.8009 70.0357 80.6675 70.3024 81.8675 70.3024C83.1675 70.3024 84.3175 69.9024 85.3175 69.1024C86.3509 68.3024 87.1509 67.2191 87.7175 65.8524C88.3175 64.4857 88.6175 62.9524 88.6175 61.2524V50.9024C88.6175 49.4024 88.3509 48.3024 87.8175 47.6024C87.2842 46.8691 86.2842 46.5024 84.8175 46.5024V45.4524C85.8842 45.5524 86.9175 45.6024 87.9175 45.6024C88.8842 45.6024 89.8009 45.5524 90.6675 45.4524C91.5675 45.3191 92.3842 45.1357 93.1175 44.9024ZM105.17 32.9524C106.037 32.9524 106.787 33.2691 107.42 33.9024C108.054 34.5357 108.37 35.2857 108.37 36.1524C108.37 37.0191 108.054 37.7691 107.42 38.4024C106.787 39.0357 106.037 39.3524 105.17 39.3524C104.304 39.3524 103.554 39.0357 102.92 38.4024C102.287 37.7691 101.97 37.0191 101.97 36.1524C101.97 35.2857 102.287 34.5357 102.92 33.9024C103.554 33.2691 104.304 32.9524 105.17 32.9524ZM107.77 44.9024V66.5524C107.77 67.9524 108.054 68.9024 108.62 69.4024C109.22 69.9024 110.204 70.1524 111.57 70.1524V71.2024C111.004 71.1691 110.137 71.1357 108.97 71.1024C107.837 71.0357 106.687 71.0024 105.52 71.0024C104.387 71.0024 103.237 71.0357 102.07 71.1024C100.904 71.1357 100.037 71.1691 99.4703 71.2024V70.1524C100.837 70.1524 101.804 69.9024 102.37 69.4024C102.97 68.9024 103.27 67.9524 103.27 66.5524V50.9024C103.27 49.4024 103.004 48.3024 102.47 47.6024C101.937 46.8691 100.937 46.5024 99.4703 46.5024V45.4524C100.537 45.5524 101.57 45.6024 102.57 45.6024C103.537 45.6024 104.454 45.5524 105.32 45.4524C106.22 45.3191 107.037 45.1357 107.77 44.9024ZM122.169 37.1524V45.5024H129.569V46.5024H122.169V65.8524C122.169 67.4191 122.452 68.5191 123.019 69.1524C123.585 69.7857 124.369 70.1024 125.369 70.1024C126.369 70.1024 127.235 69.7024 127.969 68.9024C128.702 68.0691 129.335 66.6857 129.869 64.7524L130.869 65.0024C130.535 66.9357 129.869 68.5691 128.869 69.9024C127.902 71.2357 126.402 71.9024 124.369 71.9024C123.235 71.9024 122.302 71.7524 121.569 71.4524C120.835 71.1857 120.185 70.7857 119.619 70.2524C118.885 69.4857 118.369 68.5691 118.069 67.5024C117.802 66.4357 117.669 65.0191 117.669 63.2524V46.5024H112.869V45.5024H117.669V37.8524C118.502 37.8191 119.302 37.7524 120.069 37.6524C120.835 37.5524 121.535 37.3857 122.169 37.1524Z" fill="#CBCBCB"/>
<path d="M56.74 22.52V23.72C55.94 23.92 55.08 24.46 54.16 25.34C53.24 26.18 52.46 27.6 51.82 29.6L40.78 65.24C40.62 65.24 40.44 65.24 40.24 65.24C40.08 65.24 39.92 65.24 39.76 65.24C39.56 65.24 39.38 65.24 39.22 65.24C39.06 65.24 38.9 65.24 38.74 65.24L26.02 27.38C25.54 25.9 24.98 24.94 24.34 24.5C23.74 24.02 23.16 23.76 22.6 23.72V22.52C23.44 22.56 24.48 22.6 25.72 22.64C26.96 22.68 28.16 22.7 29.32 22.7C30.96 22.7 32.48 22.68 33.88 22.64C35.32 22.6 36.46 22.56 37.3 22.52V23.72C36.1 23.76 35.14 23.9 34.42 24.14C33.74 24.34 33.34 24.78 33.22 25.46C33.14 26.14 33.34 27.24 33.82 28.76L42.64 55.88L41.62 57.2L49.18 33.38C49.98 30.9 50.34 28.98 50.26 27.62C50.22 26.22 49.76 25.24 48.88 24.68C48.04 24.08 46.8 23.76 45.16 23.72V22.52C46.36 22.56 47.56 22.6 48.76 22.64C49.96 22.68 51.12 22.7 52.24 22.7C53.24 22.7 54.08 22.68 54.76 22.64C55.48 22.6 56.14 22.56 56.74 22.52ZM14.5 22.52V23.72C13.54 23.8 12.86 24.04 12.46 24.44C12.06 24.8 11.86 25.34 11.86 26.06C11.9 26.74 12.1 27.64 12.46 28.76L21.76 56.54L20.2 58.28L28.36 32.9L29.26 34.4L19.48 65.24C19.32 65.24 19.16 65.24 19 65.24C18.84 65.24 18.66 65.24 18.46 65.24C18.3 65.24 18.12 65.24 17.92 65.24C17.76 65.24 17.6 65.24 17.44 65.24L4.48 27.56C3.96 26.04 3.32 25.04 2.56 24.56C1.8 24.04 1.1 23.76 0.46 23.72V22.52C1.42 22.56 2.56 22.6 3.88 22.64C5.2 22.68 6.48 22.7 7.72 22.7C9.16 22.7 10.46 22.68 11.62 22.64C12.82 22.6 13.78 22.56 14.5 22.52Z" fill="white"/>
</svg>
